# xmcd
#
# Track frame offsets: 
#        150
#        12816
#        30090
#        45475
#        61002
#        80140
#        98596
#        116499
#        134212
#        155717
#        174661
#        196741
#        215697
#        237506
#        259630
#        276125
#        297229
#        313983
#
# Disc length: 4595 seconds
#
# Revision: 1
# Processed by: cddbd v1.5.2PL0 Copyright (c) Steve Scherf et al.
# Submitted via: ExactAudioCopy v0.95b2
#
DISCID=0011f112
DTITLE=Various Artist - Созвездие Хитов Шансон 4
DYEAR=1900
DGENRE=Chanson
TTITLE0=Полотно Анатолий/Гоп - Стоп, Сало (& Карманов Федя)
TTITLE1=Шуфутинский Михаил/Мне Очень Жаль
TTITLE2=Круг Михаил/Свобода (& Гулько Михаил)
TTITLE3=Дальний Свет/Ирэн
TTITLE4=Слуцкий Игорь/Калина Красная
TTITLE5=Городецкий Алексей/Зверь
TTITLE6=Черняков Владимир/Вино Любви (& Огонёк Катя)
TTITLE7=Лесоповал/Посидим Пацаны
TTITLE8=Розенбаум Александр/Разреши, Я Тебе Напишу
TTITLE9=Трофим/Снегири
TTITLE10=Александрова Марина/Звёздочка
TTITLE11=Винокуров Марк/Мама, Я Вернусь
TTITLE12=Черняков Владимир/За Друзей
TTITLE13=Карманов Федя/Любо Братцы, Любо
TTITLE14=Йоссер Николай/Прослезились Дожди
TTITLE15=Грубов Сергей/Справка Об Освобождении
TTITLE16=Макаровна/Катерок (& Шапорев Евгений)
TTITLE17=Грач Гера/Гитара Старая
EXTD=
EXTT0=
EXTT1=
EXTT2=
EXTT3=
EXTT4=
EXTT5=
EXTT6=
EXTT7=
EXTT8=
EXTT9=
EXTT10=
EXTT11=
EXTT12=
EXTT13=
EXTT14=
EXTT15=
EXTT16=
EXTT17=
PLAYORDER=
